<svg xmlns="http://www.w3.org/2000/svg" xmlns:xlink="http://www.w3.org/1999/xlink" viewBox="0,0,255.98714,255.98714" width="64px" height="64px" fill-rule="nonzero"><g fill="#1c427c" fill-rule="nonzero" stroke="none" stroke-width="1" stroke-linecap="butt" stroke-linejoin="miter" stroke-miterlimit="10" stroke-dasharray="" stroke-dashoffset="0" font-family="none" font-weight="none" font-size="none" text-anchor="none" style="mix-blend-mode: normal"><g transform="scale(3.55556,3.55556)"><path d="M32,13c-1.105,0 -2,0.895 -2,2v1h-13c-2.209,0 -4,1.791 -4,4c0,1.97365 1.43236,3.60263 3.3125,3.92969l2.39453,28.73437c0.346,4.147 3.81361,7.33594 7.97461,7.33594h18.63672c4.161,0 7.62761,-3.18894 7.97461,-7.33594l2.39453,-28.73437c1.88014,-0.32705 3.3125,-1.95604 3.3125,-3.92969c0,-2.209 -1.791,-4 -4,-4h-13v-1c0,-1.105 -0.895,-2 -2,-2zM24.34766,24h23.30469l-2.25586,27.08203c-0.044,0.518 -0.47805,0.91797 -0.99805,0.91797h-16.79688c-0.52,0 -0.95409,-0.39997 -0.99609,-0.91797z"></path></g></g></svg>